<svg width="38" height="38" viewBox="0 0 38 38" fill="none" xmlns="http://www.w3.org/2000/svg">
<path d="M17.4325 4.82916C10.3075 5.60499 4.75 11.6533 4.75 19C4.75 22.7793 6.25133 26.4039 8.92373 29.0763C11.5961 31.7487 15.2207 33.25 19 33.25C26.3308 33.25 32.3792 27.7083 33.1708 20.5833C33.3133 19.3325 31.9358 18.335 30.7325 19.0792C29.44 19.9042 27.9495 20.3666 26.4169 20.4181C24.8844 20.4696 23.3662 20.1082 22.0213 19.3718C20.6763 18.6354 19.554 17.551 18.7718 16.2321C17.9896 14.9132 17.5762 13.4084 17.575 11.875C17.575 10.1967 18.0658 8.61333 18.905 7.29916C19.6175 6.23833 18.8417 4.71833 17.4325 4.82916Z" fill="white"/>
</svg>
