<svg width="38" height="38" viewBox="0 0 38 38" fill="none" xmlns="http://www.w3.org/2000/svg">
<path d="M19 27.0196C16.9004 27.0196 14.8867 26.1855 13.4021 24.7008C11.9174 23.2162 11.0833 21.2025 11.0833 19.1029C11.0833 17.0033 11.9174 14.9896 13.4021 13.505C14.8867 12.0203 16.9004 11.1862 19 11.1862C21.0996 11.1862 23.1133 12.0203 24.5979 13.505C26.0826 14.9896 26.9167 17.0033 26.9167 19.1029C26.9167 21.2025 26.0826 23.2162 24.5979 24.7008C23.1133 26.1855 21.0996 27.0196 19 27.0196ZM19 3.26958C19.4199 3.26958 19.8227 3.43639 20.1196 3.73332C20.4165 4.03026 20.5833 4.43298 20.5833 4.85291V8.01958C20.5833 8.4395 20.4165 8.84223 20.1196 9.13916C19.8227 9.4361 19.4199 9.60291 19 9.60291C18.5801 9.60291 18.1773 9.4361 17.8804 9.13916C17.5835 8.84223 17.4167 8.4395 17.4167 8.01958V4.85291C17.4167 4.43298 17.5835 4.03026 17.8804 3.73332C18.1773 3.43639 18.5801 3.26958 19 3.26958ZM19 28.6029C19.4199 28.6029 19.8227 28.7697 20.1196 29.0667C20.4165 29.3636 20.5833 29.7663 20.5833 30.1862V33.3529C20.5833 33.7728 20.4165 34.1756 20.1196 34.4725C19.8227 34.7694 19.4199 34.9362 19 34.9362C18.5801 34.9362 18.1773 34.7694 17.8804 34.4725C17.5835 34.1756 17.4167 33.7728 17.4167 33.3529V30.1862C17.4167 29.7663 17.5835 29.3636 17.8804 29.0667C18.1773 28.7697 18.5801 28.6029 19 28.6029ZM4.75 17.5196H7.91667C8.33659 17.5196 8.73932 17.6864 9.03625 17.9833C9.33318 18.2803 9.5 18.683 9.5 19.1029C9.5 19.5228 9.33318 19.9256 9.03625 20.2225C8.73932 20.5194 8.33659 20.6862 7.91667 20.6862H4.75C4.33007 20.6862 3.92735 20.5194 3.63041 20.2225C3.33348 19.9256 3.16667 19.5228 3.16667 19.1029C3.16667 18.683 3.33348 18.2803 3.63041 17.9833C3.92735 17.6864 4.33007 17.5196 4.75 17.5196ZM30.0833 17.5196H33.25C33.6699 17.5196 34.0727 17.6864 34.3696 17.9833C34.6665 18.2803 34.8333 18.683 34.8333 19.1029C34.8333 19.5228 34.6665 19.9256 34.3696 20.2225C34.0727 20.5194 33.6699 20.6862 33.25 20.6862H30.0833C29.6634 20.6862 29.2607 20.5194 28.9637 20.2225C28.6668 19.9256 28.5 19.5228 28.5 19.1029C28.5 18.683 28.6668 18.2803 28.9637 17.9833C29.2607 17.6864 29.6634 17.5196 30.0833 17.5196ZM30.1957 7.90716C30.4926 8.20408 30.6593 8.60673 30.6593 9.02658C30.6593 9.44642 30.4926 9.84907 30.1957 10.146L27.9569 12.3848C27.8109 12.5361 27.6361 12.6567 27.443 12.7397C27.2498 12.8226 27.042 12.8663 26.8318 12.8681C26.6216 12.87 26.4131 12.8299 26.2185 12.7503C26.0239 12.6707 25.8471 12.5531 25.6985 12.4045C25.5498 12.2558 25.4322 12.079 25.3526 11.8844C25.273 11.6898 25.2329 11.4813 25.2348 11.2711C25.2366 11.0609 25.2803 10.8531 25.3633 10.6599C25.4462 10.4668 25.5669 10.2921 25.7181 10.146L27.9569 7.90716C28.2538 7.61033 28.6565 7.44358 29.0763 7.44358C29.4962 7.44358 29.8988 7.61033 30.1957 7.90716ZM12.2819 25.821C12.5787 26.1179 12.7455 26.5206 12.7455 26.9404C12.7455 27.3603 12.5787 27.7629 12.2819 28.0598L10.0431 30.2987C9.89703 30.4499 9.72231 30.5705 9.52914 30.6535C9.33597 30.7365 9.1282 30.7801 8.91797 30.782C8.70773 30.7838 8.49924 30.7437 8.30466 30.6641C8.11007 30.5845 7.93329 30.4669 7.78462 30.3183C7.63596 30.1696 7.51839 29.9928 7.43878 29.7983C7.35917 29.6037 7.31911 29.3952 7.32094 29.1849C7.32276 28.9747 7.36644 28.7669 7.44942 28.5738C7.5324 28.3806 7.65302 28.2059 7.80425 28.0598L10.0431 25.821C10.34 25.5242 10.7427 25.3574 11.1625 25.3574C11.5823 25.3574 11.985 25.5242 12.2819 25.821ZM10.0431 7.90716L12.2819 10.146C12.5703 10.4446 12.7299 10.8446 12.7263 11.2597C12.7227 11.6749 12.5562 12.072 12.2626 12.3655C11.9691 12.6591 11.5719 12.8256 11.1568 12.8292C10.7417 12.8328 10.3417 12.6732 10.0431 12.3848L7.80583 10.146C7.51742 9.84737 7.35782 9.44742 7.36143 9.03228C7.36504 8.61713 7.53156 8.22001 7.82512 7.92645C8.11868 7.63288 8.5158 7.46637 8.93095 7.46276C9.34609 7.45915 9.74605 7.61874 10.0447 7.90716H10.0431ZM27.9569 25.821L30.1957 28.0598C30.4842 28.3584 30.6438 28.7584 30.6402 29.1735C30.6365 29.5887 30.47 29.9858 30.1765 30.2794C29.8829 30.5729 29.4858 30.7395 29.0706 30.7431C28.6555 30.7467 28.2555 30.5871 27.9569 30.2987L25.7181 28.0598C25.5669 27.9138 25.4462 27.7391 25.3633 27.5459C25.2803 27.3527 25.2366 27.1449 25.2348 26.9347C25.2329 26.7245 25.273 26.516 25.3526 26.3214C25.4322 26.1268 25.5498 25.95 25.6985 25.8014C25.8471 25.6527 26.0239 25.5351 26.2185 25.4555C26.4131 25.3759 26.6216 25.3359 26.8318 25.3377C27.042 25.3395 27.2498 25.3832 27.443 25.4662C27.6361 25.5491 27.8109 25.6698 27.9569 25.821Z" fill="white"/>
</svg>
