<svg width="38" height="38" viewBox="0 0 38 38" fill="none" xmlns="http://www.w3.org/2000/svg">
<path d="M16.6788 13.338C16.4067 13.5302 16.1869 13.7872 16.0392 14.0858C15.8916 14.3844 15.8208 14.7151 15.8333 15.048C15.8333 15.4679 15.6665 15.8707 15.3696 16.1676C15.0727 16.4645 14.6699 16.6313 14.25 16.6313C13.8301 16.6313 13.4273 16.4645 13.1304 16.1676C12.8335 15.8707 12.6667 15.4679 12.6667 15.048C12.6667 13.186 13.528 11.7357 14.7883 10.7983C16.0043 9.89267 17.5433 9.49051 19 9.49051C20.4567 9.49051 21.9925 9.89267 23.2117 10.7952C24.472 11.7325 25.3333 13.1828 25.3333 15.0448C25.3333 16.4033 24.9058 17.4357 24.1712 18.2305C23.5917 18.8575 22.8475 19.285 22.3345 19.5795L22.173 19.6745C21.5808 20.0197 21.2357 20.2572 21.0013 20.5675C20.7987 20.8272 20.5833 21.2642 20.5833 22.1635C20.5833 22.5834 20.4165 22.9862 20.1196 23.2831C19.8227 23.58 19.4199 23.7468 19 23.7468C18.5801 23.7468 18.1773 23.58 17.8804 23.2831C17.5835 22.9862 17.4167 22.5834 17.4167 22.1635C17.4167 20.6878 17.7967 19.5415 18.487 18.639C19.1393 17.7872 19.9817 17.2837 20.577 16.9385L20.6657 16.8878C21.2895 16.5237 21.6093 16.3368 21.8437 16.0803C22.002 15.9125 22.1667 15.6623 22.1667 15.0448C22.1798 14.7119 22.1092 14.3809 21.9615 14.0822C21.8139 13.7835 21.5937 13.5266 21.3212 13.3348C20.7575 12.92 19.9183 12.6603 19 12.6603C18.0817 12.6603 17.2457 12.92 16.6788 13.3412V13.338ZM19 28.5C19.4199 28.5 19.8227 28.3332 20.1196 28.0363C20.4165 27.7393 20.5833 27.3366 20.5833 26.9167C20.5833 26.4967 20.4165 26.094 20.1196 25.7971C19.8227 25.5002 19.4199 25.3333 19 25.3333C18.5801 25.3333 18.1773 25.5002 17.8804 25.7971C17.5835 26.094 17.4167 26.4967 17.4167 26.9167C17.4167 27.3366 17.5835 27.7393 17.8804 28.0363C18.1773 28.3332 18.5801 28.5 19 28.5ZM3.16666 19C3.16666 14.8007 4.83481 10.7735 7.80414 7.80415C10.7735 4.83482 14.8007 3.16667 19 3.16667C23.1993 3.16667 27.2265 4.83482 30.1959 7.80415C33.1652 10.7735 34.8333 14.8007 34.8333 19C34.8333 23.1993 33.1652 27.2265 30.1959 30.1959C27.2265 33.1652 23.1993 34.8333 19 34.8333C14.8007 34.8333 10.7735 33.1652 7.80414 30.1959C4.83481 27.2265 3.16666 23.1993 3.16666 19ZM19 6.33334C15.6406 6.33334 12.4188 7.66786 10.0433 10.0433C7.66785 12.4188 6.33333 15.6406 6.33333 19C6.33333 22.3594 7.66785 25.5812 10.0433 27.9567C12.4188 30.3322 15.6406 31.6667 19 31.6667C22.3594 31.6667 25.5812 30.3322 27.9567 27.9567C30.3321 25.5812 31.6667 22.3594 31.6667 19C31.6667 15.6406 30.3321 12.4188 27.9567 10.0433C25.5812 7.66786 22.3594 6.33334 19 6.33334Z" fill="white"/>
</svg>
