<svg width="27" height="26" viewBox="0 0 27 26" fill="none" xmlns="http://www.w3.org/2000/svg">
<path d="M6.45833 16.25C7.40635 16.2446 8.31817 15.8853 9.015 15.2425L15.7967 19.1208C15.7103 19.4201 15.6665 19.7301 15.6667 20.0417C15.6597 20.9208 15.9559 21.7756 16.5054 22.4619C17.0548 23.1483 17.824 23.6243 18.6834 23.8099C19.5428 23.9955 20.4399 23.8793 21.2236 23.4809C22.0074 23.0825 22.6299 22.4262 22.9864 21.6226C23.3429 20.8189 23.4116 19.9169 23.1809 19.0685C22.9502 18.2201 22.4342 17.4771 21.7198 16.9646C21.0054 16.4522 20.1363 16.2015 19.2587 16.2548C18.3811 16.3082 17.5487 16.6623 16.9017 17.2575L10.12 13.3792C10.2018 13.1122 10.2456 12.835 10.25 12.5558L16.9125 8.7425C17.5561 9.32407 18.38 9.66667 19.2462 9.71284C20.1124 9.759 20.9681 9.50593 21.6699 8.99605C22.3716 8.48618 22.8767 7.75051 23.1004 6.91244C23.3241 6.07437 23.2528 5.18487 22.8985 4.3931C22.5442 3.60134 21.9285 2.95548 21.1545 2.56384C20.3805 2.1722 19.4954 2.0586 18.6477 2.24209C17.7999 2.42558 17.041 2.895 16.4982 3.57163C15.9554 4.24825 15.6619 5.09093 15.6667 5.95833C15.6703 6.26958 15.714 6.57906 15.7967 6.87916L9.6325 10.4C9.27533 9.84745 8.78054 9.39735 8.19674 9.09393C7.61295 8.79052 6.96025 8.64424 6.30279 8.66946C5.64534 8.69469 5.00577 8.89056 4.44694 9.23781C3.88811 9.58507 3.42926 10.0718 3.11548 10.6501C2.80171 11.2283 2.64381 11.8783 2.6573 12.5361C2.6708 13.1939 2.85523 13.8369 3.19246 14.4018C3.5297 14.9668 4.00813 15.4342 4.58073 15.7583C5.15333 16.0823 5.8004 16.2518 6.45833 16.25ZM19.4583 18.4167C19.7797 18.4167 20.0939 18.512 20.3611 18.6905C20.6284 18.8691 20.8366 19.1229 20.9596 19.4198C21.0826 19.7167 21.1148 20.0435 21.0521 20.3587C20.9894 20.6739 20.8346 20.9634 20.6074 21.1907C20.3801 21.418 20.0906 21.5727 19.7754 21.6354C19.4601 21.6981 19.1334 21.666 18.8365 21.543C18.5395 21.42 18.2858 21.2117 18.1072 20.9445C17.9286 20.6772 17.8333 20.3631 17.8333 20.0417C17.8333 19.6107 18.0045 19.1974 18.3093 18.8926C18.614 18.5879 19.0274 18.4167 19.4583 18.4167ZM19.4583 4.33333C19.7797 4.33333 20.0939 4.42863 20.3611 4.60719C20.6284 4.78575 20.8366 5.03954 20.9596 5.33647C21.0826 5.6334 21.1148 5.96013 21.0521 6.27535C20.9894 6.59057 20.8346 6.88012 20.6074 7.10738C20.3801 7.33464 20.0906 7.4894 19.7754 7.55211C19.4601 7.61481 19.1334 7.58263 18.8365 7.45963C18.5395 7.33664 18.2858 7.12836 18.1072 6.86113C17.9286 6.5939 17.8333 6.27972 17.8333 5.95833C17.8333 5.52735 18.0045 5.11403 18.3093 4.80928C18.614 4.50453 19.0274 4.33333 19.4583 4.33333ZM6.45833 10.8333C6.77973 10.8333 7.09391 10.9286 7.36114 11.1072C7.62837 11.2857 7.83665 11.5395 7.95964 11.8365C8.08263 12.1334 8.11481 12.4601 8.05211 12.7754C7.98941 13.0906 7.83464 13.3801 7.60738 13.6074C7.38012 13.8346 7.09057 13.9894 6.77536 14.0521C6.46014 14.1148 6.1334 14.0826 5.83647 13.9596C5.53954 13.8366 5.28575 13.6284 5.1072 13.3611C4.92864 13.0939 4.83333 12.7797 4.83333 12.4583C4.83333 12.0274 5.00454 11.614 5.30928 11.3093C5.61403 11.0045 6.02736 10.8333 6.45833 10.8333Z" fill="white"/>
</svg>
